<svg width="230" height="204" viewBox="0 0 230 204" fill="none" xmlns="http://www.w3.org/2000/svg">
<path d="M68.525 6.82093C77.7109 -3.04199 90.2057 -1.47146 98.1981 6.82093L103.071 12.2079C103.903 13.071 104.932 13.7412 106.077 14.1672C107.223 14.5932 108.455 14.7637 109.681 14.6657L118.348 12.2079C130.16 9.78924 140.893 18.1994 140.893 31.2505V36.1741C141.14 38.8519 143.601 40.6737 146.136 41.8594L153.964 44.9769C165.29 50.2539 168.121 62.771 159.874 73.2857L157.528 76.2305C155.429 78.9475 155.857 82.5047 157.948 85.2217L160.294 88.3549C168.829 98.3671 164.014 112.109 151.964 116.907L145.231 119.593C142.687 120.606 141.691 122.341 141.222 124.933L140.753 133.327C140.466 135.673 139.692 137.941 138.477 139.999C137.261 142.056 135.629 143.863 133.675 145.313C131.721 146.763 129.483 147.827 127.094 148.444C124.704 149.061 122.209 149.219 119.755 148.907L109.491 146.292C107.022 145.962 103.96 146.739 102.322 149.197L98.6179 154.027C89.432 163.905 77.0277 162.272 70.7803 156.484L63.9485 148.593C62.1541 146.944 59.9071 145.53 57.199 146.504L46.8772 149.197C38.3416 150.352 28.2996 144.093 26.6946 136.021L25.501 124.336C25.2617 123.137 24.7272 122.01 23.9415 121.048C23.1558 120.085 22.1414 119.315 20.9822 118.8L13.7388 116.42C2.84083 111.575 -0.805552 99.8512 5.45008 90.059L9.53271 84.6642C10.3367 83.4066 10.7455 81.9552 10.7105 80.4825C10.6755 79.0098 10.1981 77.5777 9.33516 76.3561L6.28966 72.2492C-2.33654 60.533 3.62278 47.4348 16.4057 43.5085L19.2207 42.6447C22.3321 41.6867 25.3364 39.2288 25.5998 36.1192L26.2254 28.5806C27.246 16.3305 38.9589 9.30237 51.2726 12.8753L55.2647 14.0297C59.1086 15.4588 62.1212 14.2417 64.2119 12.0665L68.525 6.81308V6.82093Z" fill="url(#paint0_linear_126_90)"/>
<path d="M68.525 6.82093C77.7109 -3.04199 90.2057 -1.47146 98.1981 6.82093L103.071 12.2079C103.903 13.071 104.932 13.7412 106.077 14.1672C107.223 14.5932 108.455 14.7637 109.681 14.6657L118.348 12.2079C130.16 9.78924 140.893 18.1994 140.893 31.2505V36.1741C141.14 38.8519 143.601 40.6737 146.136 41.8594L153.964 44.9769C165.29 50.2539 168.121 62.771 159.874 73.2857L157.528 76.2305C155.429 78.9475 155.857 82.5047 157.948 85.2217L160.294 88.3549C168.829 98.3671 164.014 112.109 151.964 116.907L145.231 119.593C142.687 120.606 141.691 122.341 141.222 124.933L140.753 133.327C140.466 135.673 139.692 137.941 138.477 139.999C137.261 142.056 135.629 143.863 133.675 145.313C131.721 146.763 129.483 147.827 127.094 148.444C124.704 149.061 122.209 149.219 119.755 148.907L109.491 146.292C107.022 145.962 103.96 146.739 102.322 149.197L98.6179 154.027C89.432 163.905 77.0277 162.272 70.7803 156.484L63.9485 148.593C62.1541 146.944 59.9071 145.53 57.199 146.504L46.8772 149.197C38.3416 150.352 28.2996 144.093 26.6946 136.021L25.501 124.336C25.2617 123.137 24.7272 122.01 23.9415 121.048C23.1558 120.085 22.1414 119.315 20.9822 118.8L13.7388 116.42C2.84083 111.575 -0.805552 99.8512 5.45008 90.059L9.53271 84.6642C10.3367 83.4066 10.7455 81.9552 10.7105 80.4825C10.6755 79.0098 10.1981 77.5777 9.33516 76.3561L6.28966 72.2492C-2.33654 60.533 3.62278 47.4348 16.4057 43.5085L19.2207 42.6447C22.3321 41.6867 25.3364 39.2288 25.5998 36.1192L26.2254 28.5806C27.246 16.3305 38.9589 9.30237 51.2726 12.8753L55.2647 14.0297C59.1086 15.4588 62.1212 14.2417 64.2119 12.0665L68.525 6.81308V6.82093Z" fill="url(#paint1_radial_126_90)"/>
<path d="M68.525 6.82093C77.7109 -3.04199 90.2057 -1.47146 98.1981 6.82093L103.071 12.2079C103.903 13.071 104.932 13.7412 106.077 14.1672C107.223 14.5932 108.455 14.7637 109.681 14.6657L118.348 12.2079C130.16 9.78924 140.893 18.1994 140.893 31.2505V36.1741C141.14 38.8519 143.601 40.6737 146.136 41.8594L153.964 44.9769C165.29 50.2539 168.121 62.771 159.874 73.2857L157.528 76.2305C155.429 78.9475 155.857 82.5047 157.948 85.2217L160.294 88.3549C168.829 98.3671 164.014 112.109 151.964 116.907L145.231 119.593C142.687 120.606 141.691 122.341 141.222 124.933L140.753 133.327C140.466 135.673 139.692 137.941 138.477 139.999C137.261 142.056 135.629 143.863 133.675 145.313C131.721 146.763 129.483 147.827 127.094 148.444C124.704 149.061 122.209 149.219 119.755 148.907L109.491 146.292C107.022 145.962 103.96 146.739 102.322 149.197L98.6179 154.027C89.432 163.905 77.0277 162.272 70.7803 156.484L63.9485 148.593C62.1541 146.944 59.9071 145.53 57.199 146.504L46.8772 149.197C38.3416 150.352 28.2996 144.093 26.6946 136.021L25.501 124.336C25.2617 123.137 24.7272 122.01 23.9415 121.048C23.1558 120.085 22.1414 119.315 20.9822 118.8L13.7388 116.42C2.84083 111.575 -0.805552 99.8512 5.45008 90.059L9.53271 84.6642C10.3367 83.4066 10.7455 81.9552 10.7105 80.4825C10.6755 79.0098 10.1981 77.5777 9.33516 76.3561L6.28966 72.2492C-2.33654 60.533 3.62278 47.4348 16.4057 43.5085L19.2207 42.6447C22.3321 41.6867 25.3364 39.2288 25.5998 36.1192L26.2254 28.5806C27.246 16.3305 38.9589 9.30237 51.2726 12.8753L55.2647 14.0297C59.1086 15.4588 62.1212 14.2417 64.2119 12.0665L68.525 6.81308V6.82093Z" fill="url(#paint2_radial_126_90)"/>
<path d="M68.525 6.82093C77.7109 -3.04199 90.2057 -1.47146 98.1981 6.82093L103.071 12.2079C103.903 13.071 104.932 13.7412 106.077 14.1672C107.223 14.5932 108.455 14.7637 109.681 14.6657L118.348 12.2079C130.16 9.78924 140.893 18.1994 140.893 31.2505V36.1741C141.14 38.8519 143.601 40.6737 146.136 41.8594L153.964 44.9769C165.29 50.2539 168.121 62.771 159.874 73.2857L157.528 76.2305C155.429 78.9475 155.857 82.5047 157.948 85.2217L160.294 88.3549C168.829 98.3671 164.014 112.109 151.964 116.907L145.231 119.593C142.687 120.606 141.691 122.341 141.222 124.933L140.753 133.327C140.466 135.673 139.692 137.941 138.477 139.999C137.261 142.056 135.629 143.863 133.675 145.313C131.721 146.763 129.483 147.827 127.094 148.444C124.704 149.061 122.209 149.219 119.755 148.907L109.491 146.292C107.022 145.962 103.96 146.739 102.322 149.197L98.6179 154.027C89.432 163.905 77.0277 162.272 70.7803 156.484L63.9485 148.593C62.1541 146.944 59.9071 145.53 57.199 146.504L46.8772 149.197C38.3416 150.352 28.2996 144.093 26.6946 136.021L25.501 124.336C25.2617 123.137 24.7272 122.01 23.9415 121.048C23.1558 120.085 22.1414 119.315 20.9822 118.8L13.7388 116.42C2.84083 111.575 -0.805552 99.8512 5.45008 90.059L9.53271 84.6642C10.3367 83.4066 10.7455 81.9552 10.7105 80.4825C10.6755 79.0098 10.1981 77.5777 9.33516 76.3561L6.28966 72.2492C-2.33654 60.533 3.62278 47.4348 16.4057 43.5085L19.2207 42.6447C22.3321 41.6867 25.3364 39.2288 25.5998 36.1192L26.2254 28.5806C27.246 16.3305 38.9589 9.30237 51.2726 12.8753L55.2647 14.0297C59.1086 15.4588 62.1212 14.2417 64.2119 12.0665L68.525 6.81308V6.82093Z" fill="url(#paint3_radial_126_90)"/>
<path d="M68.525 6.82093C77.7109 -3.04199 90.2057 -1.47146 98.1981 6.82093L103.071 12.2079C103.903 13.071 104.932 13.7412 106.077 14.1672C107.223 14.5932 108.455 14.7637 109.681 14.6657L118.348 12.2079C130.16 9.78924 140.893 18.1994 140.893 31.2505V36.1741C141.14 38.8519 143.601 40.6737 146.136 41.8594L153.964 44.9769C165.29 50.2539 168.121 62.771 159.874 73.2857L157.528 76.2305C155.429 78.9475 155.857 82.5047 157.948 85.2217L160.294 88.3549C168.829 98.3671 164.014 112.109 151.964 116.907L145.231 119.593C142.687 120.606 141.691 122.341 141.222 124.933L140.753 133.327C140.466 135.673 139.692 137.941 138.477 139.999C137.261 142.056 135.629 143.863 133.675 145.313C131.721 146.763 129.483 147.827 127.094 148.444C124.704 149.061 122.209 149.219 119.755 148.907L109.491 146.292C107.022 145.962 103.96 146.739 102.322 149.197L98.6179 154.027C89.432 163.905 77.0277 162.272 70.7803 156.484L63.9485 148.593C62.1541 146.944 59.9071 145.53 57.199 146.504L46.8772 149.197C38.3416 150.352 28.2996 144.093 26.6946 136.021L25.501 124.336C25.2617 123.137 24.7272 122.01 23.9415 121.048C23.1558 120.085 22.1414 119.315 20.9822 118.8L13.7388 116.42C2.84083 111.575 -0.805552 99.8512 5.45008 90.059L9.53271 84.6642C10.3367 83.4066 10.7455 81.9552 10.7105 80.4825C10.6755 79.0098 10.1981 77.5777 9.33516 76.3561L6.28966 72.2492C-2.33654 60.533 3.62278 47.4348 16.4057 43.5085L19.2207 42.6447C22.3321 41.6867 25.3364 39.2288 25.5998 36.1192L26.2254 28.5806C27.246 16.3305 38.9589 9.30237 51.2726 12.8753L55.2647 14.0297C59.1086 15.4588 62.1212 14.2417 64.2119 12.0665L68.525 6.81308V6.82093Z" fill="url(#paint4_radial_126_90)"/>
<path d="M68.525 6.82093C77.7109 -3.04199 90.2057 -1.47146 98.1981 6.82093L103.071 12.2079C103.903 13.071 104.932 13.7412 106.077 14.1672C107.223 14.5932 108.455 14.7637 109.681 14.6657L118.348 12.2079C130.16 9.78924 140.893 18.1994 140.893 31.2505V36.1741C141.14 38.8519 143.601 40.6737 146.136 41.8594L153.964 44.9769C165.29 50.2539 168.121 62.771 159.874 73.2857L157.528 76.2305C155.429 78.9475 155.857 82.5047 157.948 85.2217L160.294 88.3549C168.829 98.3671 164.014 112.109 151.964 116.907L145.231 119.593C142.687 120.606 141.691 122.341 141.222 124.933L140.753 133.327C140.466 135.673 139.692 137.941 138.477 139.999C137.261 142.056 135.629 143.863 133.675 145.313C131.721 146.763 129.483 147.827 127.094 148.444C124.704 149.061 122.209 149.219 119.755 148.907L109.491 146.292C107.022 145.962 103.96 146.739 102.322 149.197L98.6179 154.027C89.432 163.905 77.0277 162.272 70.7803 156.484L63.9485 148.593C62.1541 146.944 59.9071 145.53 57.199 146.504L46.8772 149.197C38.3416 150.352 28.2996 144.093 26.6946 136.021L25.501 124.336C25.2617 123.137 24.7272 122.01 23.9415 121.048C23.1558 120.085 22.1414 119.315 20.9822 118.8L13.7388 116.42C2.84083 111.575 -0.805552 99.8512 5.45008 90.059L9.53271 84.6642C10.3367 83.4066 10.7455 81.9552 10.7105 80.4825C10.6755 79.0098 10.1981 77.5777 9.33516 76.3561L6.28966 72.2492C-2.33654 60.533 3.62278 47.4348 16.4057 43.5085L19.2207 42.6447C22.3321 41.6867 25.3364 39.2288 25.5998 36.1192L26.2254 28.5806C27.246 16.3305 38.9589 9.30237 51.2726 12.8753L55.2647 14.0297C59.1086 15.4588 62.1212 14.2417 64.2119 12.0665L68.525 6.81308V6.82093Z" fill="url(#paint5_radial_126_90)"/>
<path d="M68.525 6.82093C77.7109 -3.04199 90.2057 -1.47146 98.1981 6.82093L103.071 12.2079C103.903 13.071 104.932 13.7412 106.077 14.1672C107.223 14.5932 108.455 14.7637 109.681 14.6657L118.348 12.2079C130.16 9.78924 140.893 18.1994 140.893 31.2505V36.1741C141.14 38.8519 143.601 40.6737 146.136 41.8594L153.964 44.9769C165.29 50.2539 168.121 62.771 159.874 73.2857L157.528 76.2305C155.429 78.9475 155.857 82.5047 157.948 85.2217L160.294 88.3549C168.829 98.3671 164.014 112.109 151.964 116.907L145.231 119.593C142.687 120.606 141.691 122.341 141.222 124.933L140.753 133.327C140.466 135.673 139.692 137.941 138.477 139.999C137.261 142.056 135.629 143.863 133.675 145.313C131.721 146.763 129.483 147.827 127.094 148.444C124.704 149.061 122.209 149.219 119.755 148.907L109.491 146.292C107.022 145.962 103.96 146.739 102.322 149.197L98.6179 154.027C89.432 163.905 77.0277 162.272 70.7803 156.484L63.9485 148.593C62.1541 146.944 59.9071 145.53 57.199 146.504L46.8772 149.197C38.3416 150.352 28.2996 144.093 26.6946 136.021L25.501 124.336C25.2617 123.137 24.7272 122.01 23.9415 121.048C23.1558 120.085 22.1414 119.315 20.9822 118.8L13.7388 116.42C2.84083 111.575 -0.805552 99.8512 5.45008 90.059L9.53271 84.6642C10.3367 83.4066 10.7455 81.9552 10.7105 80.4825C10.6755 79.0098 10.1981 77.5777 9.33516 76.3561L6.28966 72.2492C-2.33654 60.533 3.62278 47.4348 16.4057 43.5085L19.2207 42.6447C22.3321 41.6867 25.3364 39.2288 25.5998 36.1192L26.2254 28.5806C27.246 16.3305 38.9589 9.30237 51.2726 12.8753L55.2647 14.0297C59.1086 15.4588 62.1212 14.2417 64.2119 12.0665L68.525 6.81308V6.82093Z" fill="url(#paint6_radial_126_90)"/>
<path d="M68.525 6.82093C77.7109 -3.04199 90.2057 -1.47146 98.1981 6.82093L103.071 12.2079C103.903 13.071 104.932 13.7412 106.077 14.1672C107.223 14.5932 108.455 14.7637 109.681 14.6657L118.348 12.2079C130.16 9.78924 140.893 18.1994 140.893 31.2505V36.1741C141.14 38.8519 143.601 40.6737 146.136 41.8594L153.964 44.9769C165.29 50.2539 168.121 62.771 159.874 73.2857L157.528 76.2305C155.429 78.9475 155.857 82.5047 157.948 85.2217L160.294 88.3549C168.829 98.3671 164.014 112.109 151.964 116.907L145.231 119.593C142.687 120.606 141.691 122.341 141.222 124.933L140.753 133.327C140.466 135.673 139.692 137.941 138.477 139.999C137.261 142.056 135.629 143.863 133.675 145.313C131.721 146.763 129.483 147.827 127.094 148.444C124.704 149.061 122.209 149.219 119.755 148.907L109.491 146.292C107.022 145.962 103.96 146.739 102.322 149.197L98.6179 154.027C89.432 163.905 77.0277 162.272 70.7803 156.484L63.9485 148.593C62.1541 146.944 59.9071 145.53 57.199 146.504L46.8772 149.197C38.3416 150.352 28.2996 144.093 26.6946 136.021L25.501 124.336C25.2617 123.137 24.7272 122.01 23.9415 121.048C23.1558 120.085 22.1414 119.315 20.9822 118.8L13.7388 116.42C2.84083 111.575 -0.805552 99.8512 5.45008 90.059L9.53271 84.6642C10.3367 83.4066 10.7455 81.9552 10.7105 80.4825C10.6755 79.0098 10.1981 77.5777 9.33516 76.3561L6.28966 72.2492C-2.33654 60.533 3.62278 47.4348 16.4057 43.5085L19.2207 42.6447C22.3321 41.6867 25.3364 39.2288 25.5998 36.1192L26.2254 28.5806C27.246 16.3305 38.9589 9.30237 51.2726 12.8753L55.2647 14.0297C59.1086 15.4588 62.1212 14.2417 64.2119 12.0665L68.525 6.81308V6.82093Z" fill="url(#paint7_radial_126_90)"/>
<path d="M68.525 6.82093C77.7109 -3.04199 90.2057 -1.47146 98.1981 6.82093L103.071 12.2079C103.903 13.071 104.932 13.7412 106.077 14.1672C107.223 14.5932 108.455 14.7637 109.681 14.6657L118.348 12.2079C130.16 9.78924 140.893 18.1994 140.893 31.2505V36.1741C141.14 38.8519 143.601 40.6737 146.136 41.8594L153.964 44.9769C165.29 50.2539 168.121 62.771 159.874 73.2857L157.528 76.2305C155.429 78.9475 155.857 82.5047 157.948 85.2217L160.294 88.3549C168.829 98.3671 164.014 112.109 151.964 116.907L145.231 119.593C142.687 120.606 141.691 122.341 141.222 124.933L140.753 133.327C140.466 135.673 139.692 137.941 138.477 139.999C137.261 142.056 135.629 143.863 133.675 145.313C131.721 146.763 129.483 147.827 127.094 148.444C124.704 149.061 122.209 149.219 119.755 148.907L109.491 146.292C107.022 145.962 103.96 146.739 102.322 149.197L98.6179 154.027C89.432 163.905 77.0277 162.272 70.7803 156.484L63.9485 148.593C62.1541 146.944 59.9071 145.53 57.199 146.504L46.8772 149.197C38.3416 150.352 28.2996 144.093 26.6946 136.021L25.501 124.336C25.2617 123.137 24.7272 122.01 23.9415 121.048C23.1558 120.085 22.1414 119.315 20.9822 118.8L13.7388 116.42C2.84083 111.575 -0.805552 99.8512 5.45008 90.059L9.53271 84.6642C10.3367 83.4066 10.7455 81.9552 10.7105 80.4825C10.6755 79.0098 10.1981 77.5777 9.33516 76.3561L6.28966 72.2492C-2.33654 60.533 3.62278 47.4348 16.4057 43.5085L19.2207 42.6447C22.3321 41.6867 25.3364 39.2288 25.5998 36.1192L26.2254 28.5806C27.246 16.3305 38.9589 9.30237 51.2726 12.8753L55.2647 14.0297C59.1086 15.4588 62.1212 14.2417 64.2119 12.0665L68.525 6.81308V6.82093Z" fill="url(#paint8_radial_126_90)"/>
<path d="M68.525 6.82093C77.7109 -3.04199 90.2057 -1.47146 98.1981 6.82093L103.071 12.2079C103.903 13.071 104.932 13.7412 106.077 14.1672C107.223 14.5932 108.455 14.7637 109.681 14.6657L118.348 12.2079C130.16 9.78924 140.893 18.1994 140.893 31.2505V36.1741C141.14 38.8519 143.601 40.6737 146.136 41.8594L153.964 44.9769C165.29 50.2539 168.121 62.771 159.874 73.2857L157.528 76.2305C155.429 78.9475 155.857 82.5047 157.948 85.2217L160.294 88.3549C168.829 98.3671 164.014 112.109 151.964 116.907L145.231 119.593C142.687 120.606 141.691 122.341 141.222 124.933L140.753 133.327C140.466 135.673 139.692 137.941 138.477 139.999C137.261 142.056 135.629 143.863 133.675 145.313C131.721 146.763 129.483 147.827 127.094 148.444C124.704 149.061 122.209 149.219 119.755 148.907L109.491 146.292C107.022 145.962 103.96 146.739 102.322 149.197L98.6179 154.027C89.432 163.905 77.0277 162.272 70.7803 156.484L63.9485 148.593C62.1541 146.944 59.9071 145.53 57.199 146.504L46.8772 149.197C38.3416 150.352 28.2996 144.093 26.6946 136.021L25.501 124.336C25.2617 123.137 24.7272 122.01 23.9415 121.048C23.1558 120.085 22.1414 119.315 20.9822 118.8L13.7388 116.42C2.84083 111.575 -0.805552 99.8512 5.45008 90.059L9.53271 84.6642C10.3367 83.4066 10.7455 81.9552 10.7105 80.4825C10.6755 79.0098 10.1981 77.5777 9.33516 76.3561L6.28966 72.2492C-2.33654 60.533 3.62278 47.4348 16.4057 43.5085L19.2207 42.6447C22.3321 41.6867 25.3364 39.2288 25.5998 36.1192L26.2254 28.5806C27.246 16.3305 38.9589 9.30237 51.2726 12.8753L55.2647 14.0297C59.1086 15.4588 62.1212 14.2417 64.2119 12.0665L68.525 6.81308V6.82093Z" fill="url(#paint9_radial_126_90)"/>
<g filter="url(#filter0_i_126_90)">
<path d="M83.428 141.909C100.521 141.909 116.914 135.431 129.001 123.9C141.087 112.369 147.878 96.7299 147.878 80.4228C147.878 64.1156 141.087 48.4763 129.001 36.9454C116.914 25.4145 100.521 18.9365 83.428 18.9365C66.3349 18.9365 49.942 25.4145 37.8553 36.9454C25.7687 48.4763 18.9785 64.1156 18.9785 80.4228C18.9785 96.7299 25.7687 112.369 37.8553 123.9C49.942 135.431 66.3349 141.909 83.428 141.909Z" fill="url(#paint10_radial_126_90)"/>
<path d="M83.428 141.909C100.521 141.909 116.914 135.431 129.001 123.9C141.087 112.369 147.878 96.7299 147.878 80.4228C147.878 64.1156 141.087 48.4763 129.001 36.9454C116.914 25.4145 100.521 18.9365 83.428 18.9365C66.3349 18.9365 49.942 25.4145 37.8553 36.9454C25.7687 48.4763 18.9785 64.1156 18.9785 80.4228C18.9785 96.7299 25.7687 112.369 37.8553 123.9C49.942 135.431 66.3349 141.909 83.428 141.909Z" fill="url(#paint11_radial_126_90)"/>
<path d="M83.428 141.909C100.521 141.909 116.914 135.431 129.001 123.9C141.087 112.369 147.878 96.7299 147.878 80.4228C147.878 64.1156 141.087 48.4763 129.001 36.9454C116.914 25.4145 100.521 18.9365 83.428 18.9365C66.3349 18.9365 49.942 25.4145 37.8553 36.9454C25.7687 48.4763 18.9785 64.1156 18.9785 80.4228C18.9785 96.7299 25.7687 112.369 37.8553 123.9C49.942 135.431 66.3349 141.909 83.428 141.909Z" fill="url(#paint12_radial_126_90)"/>
</g>
<path d="M84.448 146.521C88.8149 146.521 93.1391 145.7 97.1736 144.106C101.208 142.511 104.874 140.175 107.962 137.229C111.05 134.283 113.499 130.786 115.17 126.936C116.841 123.087 117.702 118.962 117.702 114.796C117.702 110.63 116.841 106.504 115.17 102.655C113.499 98.8065 111.05 95.3091 107.962 92.3632C104.874 89.4173 101.208 87.0805 97.1736 85.4862C93.1391 83.8919 88.8149 83.0713 84.448 83.0713C75.6286 83.0713 67.1704 86.4137 60.9341 92.3632C54.6978 98.3128 51.1943 106.382 51.1943 114.796C51.1943 123.21 54.6978 131.279 60.9341 137.229C67.1704 143.178 75.6286 146.521 84.448 146.521Z" fill="url(#paint13_radial_126_90)"/>
<path d="M84.448 146.521C88.8149 146.521 93.1391 145.7 97.1736 144.106C101.208 142.511 104.874 140.175 107.962 137.229C111.05 134.283 113.499 130.786 115.17 126.936C116.841 123.087 117.702 118.962 117.702 114.796C117.702 110.63 116.841 106.504 115.17 102.655C113.499 98.8065 111.05 95.3091 107.962 92.3632C104.874 89.4173 101.208 87.0805 97.1736 85.4862C93.1391 83.8919 88.8149 83.0713 84.448 83.0713C75.6286 83.0713 67.1704 86.4137 60.9341 92.3632C54.6978 98.3128 51.1943 106.382 51.1943 114.796C51.1943 123.21 54.6978 131.279 60.9341 137.229C67.1704 143.178 75.6286 146.521 84.448 146.521Z" fill="url(#paint14_radial_126_90)"/>
<g filter="url(#filter1_i_126_90)">
<path d="M207.753 82.9909C178.533 55.8208 131.78 56.2919 103.3 84.1688C95.9545 91.3236 90.2968 99.8939 86.7064 109.305C86.5905 109.602 86.4059 109.87 86.1663 110.089C85.9267 110.309 85.6382 110.474 85.3225 110.572C85.0068 110.67 84.672 110.699 84.3429 110.656C84.0139 110.614 83.6992 110.501 83.4222 110.326C80.8599 108.701 78.1458 107.305 75.3146 106.156C67.2165 102.611 58.3141 101.065 49.426 101.66C40.5379 102.256 31.9493 104.973 24.4499 109.563C16.9505 114.153 10.781 120.468 6.5086 127.927C2.23621 135.387 -0.00191496 143.751 1.22938e-06 152.251C1.22938e-06 164.187 4.36248 175.181 11.6059 183.897C16.5898 190.156 23.0257 195.228 30.4089 198.716C37.7921 202.204 45.9219 204.013 54.1606 204H158.613C181.825 204 202.32 193.085 214.832 176.359C237.22 148.403 234.751 108.198 207.753 82.9909Z" fill="#E0D3FF"/>
</g>
<g filter="url(#filter2_ii_126_90)">
<path d="M207.753 82.9909C178.533 55.8208 131.78 56.2919 103.3 84.1688C95.9545 91.3236 90.2968 99.8939 86.7064 109.305C86.5905 109.602 86.4059 109.87 86.1663 110.089C85.9267 110.309 85.6382 110.474 85.3225 110.572C85.0068 110.67 84.672 110.699 84.3429 110.656C84.0139 110.614 83.6992 110.501 83.4222 110.326C80.8599 108.701 78.1458 107.305 75.3146 106.156C67.2165 102.611 58.3141 101.065 49.426 101.66C40.5379 102.256 31.9493 104.973 24.4499 109.563C16.9505 114.153 10.781 120.468 6.5086 127.927C2.23621 135.387 -0.00191496 143.751 1.22938e-06 152.251C1.22938e-06 164.187 4.36248 175.181 11.6059 183.897C16.5898 190.156 23.0257 195.228 30.4089 198.716C37.7921 202.204 45.9219 204.013 54.1606 204H158.613C181.825 204 202.32 193.085 214.832 176.359C237.22 148.403 234.751 108.198 207.753 82.9909Z" fill="#E0D3FF"/>
<path d="M207.753 82.9909C178.533 55.8208 131.78 56.2919 103.3 84.1688C95.9545 91.3236 90.2968 99.8939 86.7064 109.305C86.5905 109.602 86.4059 109.87 86.1663 110.089C85.9267 110.309 85.6382 110.474 85.3225 110.572C85.0068 110.67 84.672 110.699 84.3429 110.656C84.0139 110.614 83.6992 110.501 83.4222 110.326C80.8599 108.701 78.1458 107.305 75.3146 106.156C67.2165 102.611 58.3141 101.065 49.426 101.66C40.5379 102.256 31.9493 104.973 24.4499 109.563C16.9505 114.153 10.781 120.468 6.5086 127.927C2.23621 135.387 -0.00191496 143.751 1.22938e-06 152.251C1.22938e-06 164.187 4.36248 175.181 11.6059 183.897C16.5898 190.156 23.0257 195.228 30.4089 198.716C37.7921 202.204 45.9219 204.013 54.1606 204H158.613C181.825 204 202.32 193.085 214.832 176.359C237.22 148.403 234.751 108.198 207.753 82.9909Z" fill="url(#paint15_radial_126_90)"/>
<path d="M207.753 82.9909C178.533 55.8208 131.78 56.2919 103.3 84.1688C95.9545 91.3236 90.2968 99.8939 86.7064 109.305C86.5905 109.602 86.4059 109.87 86.1663 110.089C85.9267 110.309 85.6382 110.474 85.3225 110.572C85.0068 110.67 84.672 110.699 84.3429 110.656C84.0139 110.614 83.6992 110.501 83.4222 110.326C80.8599 108.701 78.1458 107.305 75.3146 106.156C67.2165 102.611 58.3141 101.065 49.426 101.66C40.5379 102.256 31.9493 104.973 24.4499 109.563C16.9505 114.153 10.781 120.468 6.5086 127.927C2.23621 135.387 -0.00191496 143.751 1.22938e-06 152.251C1.22938e-06 164.187 4.36248 175.181 11.6059 183.897C16.5898 190.156 23.0257 195.228 30.4089 198.716C37.7921 202.204 45.9219 204.013 54.1606 204H158.613C181.825 204 202.32 193.085 214.832 176.359C237.22 148.403 234.751 108.198 207.753 82.9909Z" fill="url(#paint16_radial_126_90)"/>
<path d="M207.753 82.9909C178.533 55.8208 131.78 56.2919 103.3 84.1688C95.9545 91.3236 90.2968 99.8939 86.7064 109.305C86.5905 109.602 86.4059 109.87 86.1663 110.089C85.9267 110.309 85.6382 110.474 85.3225 110.572C85.0068 110.67 84.672 110.699 84.3429 110.656C84.0139 110.614 83.6992 110.501 83.4222 110.326C80.8599 108.701 78.1458 107.305 75.3146 106.156C67.2165 102.611 58.3141 101.065 49.426 101.66C40.5379 102.256 31.9493 104.973 24.4499 109.563C16.9505 114.153 10.781 120.468 6.5086 127.927C2.23621 135.387 -0.00191496 143.751 1.22938e-06 152.251C1.22938e-06 164.187 4.36248 175.181 11.6059 183.897C16.5898 190.156 23.0257 195.228 30.4089 198.716C37.7921 202.204 45.9219 204.013 54.1606 204H158.613C181.825 204 202.32 193.085 214.832 176.359C237.22 148.403 234.751 108.198 207.753 82.9909Z" fill="url(#paint17_radial_126_90)"/>
<path d="M207.753 82.9909C178.533 55.8208 131.78 56.2919 103.3 84.1688C95.9545 91.3236 90.2968 99.8939 86.7064 109.305C86.5905 109.602 86.4059 109.87 86.1663 110.089C85.9267 110.309 85.6382 110.474 85.3225 110.572C85.0068 110.67 84.672 110.699 84.3429 110.656C84.0139 110.614 83.6992 110.501 83.4222 110.326C80.8599 108.701 78.1458 107.305 75.3146 106.156C67.2165 102.611 58.3141 101.065 49.426 101.66C40.5379 102.256 31.9493 104.973 24.4499 109.563C16.9505 114.153 10.781 120.468 6.5086 127.927C2.23621 135.387 -0.00191496 143.751 1.22938e-06 152.251C1.22938e-06 164.187 4.36248 175.181 11.6059 183.897C16.5898 190.156 23.0257 195.228 30.4089 198.716C37.7921 202.204 45.9219 204.013 54.1606 204H158.613C181.825 204 202.32 193.085 214.832 176.359C237.22 148.403 234.751 108.198 207.753 82.9909Z" fill="url(#paint18_radial_126_90)"/>
</g>
<defs>
<filter id="filter0_i_126_90" x="18.6785" y="18.9365" width="129.199" height="123.273" filterUnits="userSpaceOnUse" color-interpolation-filters="sRGB">
<feFlood flood-opacity="0" result="BackgroundImageFix"/>
<feBlend mode="normal" in="SourceGraphic" in2="BackgroundImageFix" result="shape"/>
<feColorMatrix in="SourceAlpha" type="matrix" values="0 0 0 0 0 0 0 0 0 0 0 0 0 0 0 0 0 0 127 0" result="hardAlpha"/>
<feOffset dx="-0.3" dy="0.3"/>
<feGaussianBlur stdDeviation="0.15"/>
<feComposite in2="hardAlpha" operator="arithmetic" k2="-1" k3="1"/>
<feColorMatrix type="matrix" values="0 0 0 0 0.921569 0 0 0 0 0.47451 0 0 0 0 0.133333 0 0 0 1 0"/>
<feBlend mode="normal" in2="shape" result="effect1_innerShadow_126_90"/>
</filter>
<filter id="filter1_i_126_90" x="0" y="62.9326" width="229.985" height="141.068" filterUnits="userSpaceOnUse" color-interpolation-filters="sRGB">
<feFlood flood-opacity="0" result="BackgroundImageFix"/>
<feBlend mode="normal" in="SourceGraphic" in2="BackgroundImageFix" result="shape"/>
<feColorMatrix in="SourceAlpha" type="matrix" values="0 0 0 0 0 0 0 0 0 0 0 0 0 0 0 0 0 0 127 0" result="hardAlpha"/>
<feOffset/>
<feGaussianBlur stdDeviation="2"/>
<feComposite in2="hardAlpha" operator="arithmetic" k2="-1" k3="1"/>
<feColorMatrix type="matrix" values="0 0 0 0 0.701961 0 0 0 0 0.698039 0 0 0 0 0.992157 0 0 0 1 0"/>
<feBlend mode="normal" in2="shape" result="effect1_innerShadow_126_90"/>
</filter>
<filter id="filter2_ii_126_90" x="0" y="62.9326" width="229.985" height="141.068" filterUnits="userSpaceOnUse" color-interpolation-filters="sRGB">
<feFlood flood-opacity="0" result="BackgroundImageFix"/>
<feBlend mode="normal" in="SourceGraphic" in2="BackgroundImageFix" result="shape"/>
<feColorMatrix in="SourceAlpha" type="matrix" values="0 0 0 0 0 0 0 0 0 0 0 0 0 0 0 0 0 0 127 0" result="hardAlpha"/>
<feOffset/>
<feGaussianBlur stdDeviation="3"/>
<feComposite in2="hardAlpha" operator="arithmetic" k2="-1" k3="1"/>
<feColorMatrix type="matrix" values="0 0 0 0 0.701961 0 0 0 0 0.698039 0 0 0 0 0.992157 0 0 0 1 0"/>
<feBlend mode="normal" in2="shape" result="effect1_innerShadow_126_90"/>
<feColorMatrix in="SourceAlpha" type="matrix" values="0 0 0 0 0 0 0 0 0 0 0 0 0 0 0 0 0 0 127 0" result="hardAlpha"/>
<feOffset/>
<feGaussianBlur stdDeviation="1"/>
<feComposite in2="hardAlpha" operator="arithmetic" k2="-1" k3="1"/>
<feColorMatrix type="matrix" values="0 0 0 0 0.701961 0 0 0 0 0.698039 0 0 0 0 0.992157 0 0 0 1 0"/>
<feBlend mode="normal" in2="effect1_innerShadow_126_90" result="effect2_innerShadow_126_90"/>
</filter>
<linearGradient id="paint0_linear_126_90" x1="133.485" y1="27.0572" x2="46.7018" y2="143.114" gradientUnits="userSpaceOnUse">
<stop stop-color="#FC8B23"/>
<stop offset="1" stop-color="#E67639"/>
</linearGradient>
<radialGradient id="paint1_radial_126_90" cx="0" cy="0" r="1" gradientUnits="userSpaceOnUse" gradientTransform="translate(98.9389 7.43344) rotate(139.491) scale(22.2108 19.4745)">
<stop offset="0.3" stop-color="#FFA13A"/>
<stop offset="1" stop-color="#FFA13A" stop-opacity="0"/>
</radialGradient>
<radialGradient id="paint2_radial_126_90" cx="0" cy="0" r="1" gradientUnits="userSpaceOnUse" gradientTransform="translate(39.9549 0.601638) rotate(66.8515) scale(34.6221 31.575)">
<stop offset="0.3" stop-color="#FF942A"/>
<stop offset="1" stop-color="#FF942A" stop-opacity="0"/>
</radialGradient>
<radialGradient id="paint3_radial_126_90" cx="0" cy="0" r="1" gradientUnits="userSpaceOnUse" gradientTransform="translate(136.738 32.6757) rotate(-165.416) scale(14.324 19.0399)">
<stop offset="0.3" stop-color="#FFA13D"/>
<stop offset="1" stop-color="#FFA13D" stop-opacity="0"/>
</radialGradient>
<radialGradient id="paint4_radial_126_90" cx="0" cy="0" r="1" gradientUnits="userSpaceOnUse" gradientTransform="translate(165.715 52.6328) rotate(155.236) scale(25.2587 18.1059)">
<stop offset="0.3" stop-color="#FFA13D"/>
<stop offset="1" stop-color="#FFA13D" stop-opacity="0"/>
</radialGradient>
<radialGradient id="paint5_radial_126_90" cx="0" cy="0" r="1" gradientUnits="userSpaceOnUse" gradientTransform="translate(171.264 93.7437) rotate(-173.681) scale(28.4016 15.2876)">
<stop offset="0.3" stop-color="#FFA13D"/>
<stop offset="1" stop-color="#FFA13D" stop-opacity="0"/>
</radialGradient>
<radialGradient id="paint6_radial_126_90" cx="0" cy="0" r="1" gradientUnits="userSpaceOnUse" gradientTransform="translate(145.813 125.255) rotate(-42.6181) scale(25.2137 24.2223)">
<stop stop-color="#E0762A"/>
<stop offset="1" stop-color="#E0762A" stop-opacity="0"/>
</radialGradient>
<radialGradient id="paint7_radial_126_90" cx="0" cy="0" r="1" gradientUnits="userSpaceOnUse" gradientTransform="translate(26.3406 119.483) rotate(-129.06) scale(19.1996 18.6963)">
<stop stop-color="#E0762A"/>
<stop offset="1" stop-color="#E0762A" stop-opacity="0"/>
</radialGradient>
<radialGradient id="paint8_radial_126_90" cx="0" cy="0" r="1" gradientUnits="userSpaceOnUse" gradientTransform="translate(-0.624468 55.7586) rotate(24.2523) scale(19.9037 23.3327)">
<stop stop-color="#F0851D"/>
<stop offset="1" stop-color="#F0851D" stop-opacity="0"/>
</radialGradient>
<radialGradient id="paint9_radial_126_90" cx="0" cy="0" r="1" gradientUnits="userSpaceOnUse" gradientTransform="translate(119.171 152.566) rotate(-143.781) scale(23.005 21.419)">
<stop offset="0.337" stop-color="#E3745B"/>
<stop offset="1" stop-color="#E3745B" stop-opacity="0"/>
</radialGradient>
<radialGradient id="paint10_radial_126_90" cx="0" cy="0" r="1" gradientUnits="userSpaceOnUse" gradientTransform="translate(119.999 44.8031) rotate(118.865) scale(110.883 140.523)">
<stop offset="0.172" stop-color="#FFD13D"/>
<stop offset="1" stop-color="#D89A29"/>
</radialGradient>
<radialGradient id="paint11_radial_126_90" cx="0" cy="0" r="1" gradientUnits="userSpaceOnUse" gradientTransform="translate(60.5163 115.829) rotate(-141.947) scale(39.3868 32.9147)">
<stop offset="0.341" stop-color="#DCA225"/>
<stop offset="1" stop-color="#DCA225" stop-opacity="0"/>
</radialGradient>
<radialGradient id="paint12_radial_126_90" cx="0" cy="0" r="1" gradientUnits="userSpaceOnUse" gradientTransform="translate(136.066 69.9238) rotate(168.823) scale(136.995 110.754)">
<stop offset="0.62" stop-color="#DCA225" stop-opacity="0"/>
<stop offset="1" stop-color="#DCA225"/>
</radialGradient>
<radialGradient id="paint13_radial_126_90" cx="0" cy="0" r="1" gradientUnits="userSpaceOnUse" gradientTransform="translate(82.1753 109.381) rotate(-111.367) scale(28.2468 28.4142)">
<stop offset="0.307" stop-color="#CECDFF"/>
<stop offset="1" stop-color="#B7B6FA"/>
</radialGradient>
<radialGradient id="paint14_radial_126_90" cx="0" cy="0" r="1" gradientUnits="userSpaceOnUse" gradientTransform="translate(94.6606 102.327) rotate(-149.992) scale(11.7877 38.3191)">
<stop offset="0.401" stop-color="#B8B7FF"/>
<stop offset="1" stop-color="#B8B7FF" stop-opacity="0"/>
</radialGradient>
<radialGradient id="paint15_radial_126_90" cx="0" cy="0" r="1" gradientUnits="userSpaceOnUse" gradientTransform="translate(118.666 151.621) rotate(-107.722) scale(102.449 59.8325)">
<stop stop-color="#D6CCFF"/>
<stop offset="1" stop-color="#D6CCFF" stop-opacity="0"/>
</radialGradient>
<radialGradient id="paint16_radial_126_90" cx="0" cy="0" r="1" gradientUnits="userSpaceOnUse" gradientTransform="translate(216.593 103.424) rotate(148.226) scale(98.3126 107.635)">
<stop offset="0.19" stop-color="#F2F0FF"/>
<stop offset="1" stop-color="#F2F0FF" stop-opacity="0"/>
</radialGradient>
<radialGradient id="paint17_radial_126_90" cx="0" cy="0" r="1" gradientUnits="userSpaceOnUse" gradientTransform="translate(58.1585 129.008) rotate(148.532) scale(77.5138 92.5377)">
<stop stop-color="#F2F0FF"/>
<stop offset="0.696" stop-color="#F2F0FF" stop-opacity="0"/>
</radialGradient>
<radialGradient id="paint18_radial_126_90" cx="0" cy="0" r="1" gradientUnits="userSpaceOnUse" gradientTransform="translate(76.2529 97.4712) rotate(71.0946) scale(63.5264 24.5902)">
<stop stop-color="#F2F0FF"/>
<stop offset="1" stop-color="#F2F0FF" stop-opacity="0"/>
</radialGradient>
</defs>
</svg>
